<!-- Created with WebVOWL (version 1.0.4), http://vowl.visualdataweb.org -->
<svg class="vowlGraph" width="942.24" height="659" version="1.1" xmlns="http://www.w3.org/2000/svg"><g transform="translate(68.85104370117188,94.38199615478516),scale(0.7221398949623108,0.7221398949623108)"><g class="linkContainer"><defs><marker id="marker9" viewBox="-14 -10 28 20" markerWidth="10" markerHeight="10" orient="auto"><path d="M0,0L -12,8L-12,-8L0,0" class="filled" style="fill: rgb(0, 0, 0); stroke: rgb(0, 0, 0); stroke-width: 2; stroke-dasharray: 100;"></path></marker><marker id="marker11" viewBox="-14 -10 28 20" markerWidth="10" markerHeight="10" orient="auto"><path d="M0,0L 12,-8L12,8L0,0" class="filled" style="fill: rgb(0, 0, 0); stroke: rgb(0, 0, 0); stroke-width: 2; stroke-dasharray: 100;"></path></marker><marker id="marker16" viewBox="-14 -10 28 20" markerWidth="10" markerHeight="10" orient="auto"><path d="M0,0L -12,8L-12,-8L0,0" class="filled" style="fill: rgb(0, 0, 0); stroke: rgb(0, 0, 0); stroke-width: 2; stroke-dasharray: 100;"></path></marker><marker id="marker17" viewBox="-14 -10 28 20" markerWidth="10" markerHeight="10" orient="auto"><path d="M0,0L -12,8L-12,-8L0,0" class="filled" style="fill: rgb(0, 0, 0); stroke: rgb(0, 0, 0); stroke-width: 2; stroke-dasharray: 100;"></path></marker><marker id="marker18" viewBox="-14 -10 28 20" markerWidth="10" markerHeight="10" orient="auto"><path d="M0,0L -12,8L-12,-8L0,0" class="filled" style="fill: rgb(0, 0, 0); stroke: rgb(0, 0, 0); stroke-width: 2; stroke-dasharray: 100;"></path></marker><marker id="marker28" viewBox="-14 -10 28 20" markerWidth="10" markerHeight="10" orient="auto"><path d="M0,0L 12,-8L12,8L0,0" class="filled" style="fill: rgb(0, 0, 0); stroke: rgb(0, 0, 0); stroke-width: 2; stroke-dasharray: 100;"></path></marker><marker id="marker19" viewBox="-14 -10 28 20" markerWidth="10" markerHeight="10" orient="auto"><path d="M0,0L -12,8L-12,-8L0,0" class="filled" style="fill: rgb(0, 0, 0); stroke: rgb(0, 0, 0); stroke-width: 2; stroke-dasharray: 100;"></path></marker><marker id="marker25" viewBox="-14 -10 28 20" markerWidth="10" markerHeight="10" orient="auto"><path d="M0,0L 12,-8L12,8L0,0" class="filled" style="fill: rgb(0, 0, 0); stroke: rgb(0, 0, 0); stroke-width: 2; stroke-dasharray: 100;"></path></marker><marker id="marker22" viewBox="-14 -10 28 20" markerWidth="10" markerHeight="10" orient="auto"><path d="M0,0L -12,8L-12,-8L0,0" class="filled" style="fill: rgb(0, 0, 0); stroke: rgb(0, 0, 0); stroke-width: 2; stroke-dasharray: 100;"></path></marker><marker id="marker23" viewBox="-14 -10 28 20" markerWidth="10" markerHeight="10" orient="auto"><path d="M0,0L -12,8L-12,-8L0,0" class="filled" style="fill: rgb(0, 0, 0); stroke: rgb(0, 0, 0); stroke-width: 2; stroke-dasharray: 100;"></path></marker><marker id="marker24" viewBox="-14 -10 28 20" markerWidth="10" markerHeight="10" orient="auto"><path d="M0,0L -12,8L-12,-8L0,0" class="filled" style="fill: rgb(0, 0, 0); stroke: rgb(0, 0, 0); stroke-width: 2; stroke-dasharray: 100;"></path></marker><marker id="marker26" viewBox="-14 -10 28 20" markerWidth="10" markerHeight="10" orient="auto"><path d="M0,0L -12,8L-12,-8L0,0" class="filled" style="fill: rgb(0, 0, 0); stroke: rgb(0, 0, 0); stroke-width: 2; stroke-dasharray: 100;"></path></marker><marker id="marker27" viewBox="-14 -10 28 20" markerWidth="10" markerHeight="10" orient="auto"><path d="M0,0L 12,-8L12,8L0,0" class="filled" style="fill: rgb(0, 0, 0); stroke: rgb(0, 0, 0); stroke-width: 2; stroke-dasharray: 100;"></path></marker><marker id="marker29" viewBox="-14 -10 28 20" markerWidth="10" markerHeight="10" orient="auto"><path d="M0,0L -12,8L-12,-8L0,0" class="filled" style="fill: rgb(0, 0, 0); stroke: rgb(0, 0, 0); stroke-width: 2; stroke-dasharray: 100;"></path></marker><marker id="markerGENERATED-UNION-2-3-0" viewBox="-10 -10 20 20" markerWidth="20" markerHeight="20" markerUnits="userSpaceOnUse" orient="auto" refX="-8"><path d="M0,-8L8,0L0,8L-8,0L0,-8L8,0" class="white" style="fill: rgb(255, 255, 255); stroke: rgb(0, 0, 0); stroke-width: 2; stroke-dasharray: 100;"></path></marker><marker id="markerGENERATED-UNION-2-4-1" viewBox="-10 -10 20 20" markerWidth="20" markerHeight="20" markerUnits="userSpaceOnUse" orient="auto" refX="-8"><path d="M0,-8L8,0L0,8L-8,0L0,-8L8,0" class="white" style="fill: rgb(255, 255, 255); stroke: rgb(0, 0, 0); stroke-width: 2; stroke-dasharray: 100;"></path></marker><marker id="markerGENERATED-UNION-6-7-0" viewBox="-10 -10 20 20" markerWidth="20" markerHeight="20" markerUnits="userSpaceOnUse" orient="auto" refX="-8"><path d="M0,-8L8,0L0,8L-8,0L0,-8L8,0" class="white" style="fill: rgb(255, 255, 255); stroke: rgb(0, 0, 0); stroke-width: 2; stroke-dasharray: 100;"></path></marker><marker id="markerGENERATED-UNION-6-0-1" viewBox="-10 -10 20 20" markerWidth="20" markerHeight="20" markerUnits="userSpaceOnUse" orient="auto" refX="-8"><path d="M0,-8L8,0L0,8L-8,0L0,-8L8,0" class="white" style="fill: rgb(255, 255, 255); stroke: rgb(0, 0, 0); stroke-width: 2; stroke-dasharray: 100;"></path></marker><marker id="markerGENERATED-UNION-8-0-0" viewBox="-10 -10 20 20" markerWidth="20" markerHeight="20" markerUnits="userSpaceOnUse" orient="auto" refX="-8"><path d="M0,-8L8,0L0,8L-8,0L0,-8L8,0" class="white" style="fill: rgb(255, 255, 255); stroke: rgb(0, 0, 0); stroke-width: 2; stroke-dasharray: 100;"></path></marker><marker id="markerGENERATED-UNION-8-5-1" viewBox="-10 -10 20 20" markerWidth="20" markerHeight="20" markerUnits="userSpaceOnUse" orient="auto" refX="-8"><path d="M0,-8L8,0L0,8L-8,0L0,-8L8,0" class="white" style="fill: rgb(255, 255, 255); stroke: rgb(0, 0, 0); stroke-width: 2; stroke-dasharray: 100;"></path></marker><marker id="markerGENERATED-UNION-10-7-0" viewBox="-10 -10 20 20" markerWidth="20" markerHeight="20" markerUnits="userSpaceOnUse" orient="auto" refX="-8"><path d="M0,-8L8,0L0,8L-8,0L0,-8L8,0" class="white" style="fill: rgb(255, 255, 255); stroke: rgb(0, 0, 0); stroke-width: 2; stroke-dasharray: 100;"></path></marker><marker id="markerGENERATED-UNION-10-0-1" viewBox="-10 -10 20 20" markerWidth="20" markerHeight="20" markerUnits="userSpaceOnUse" orient="auto" refX="-8"><path d="M0,-8L8,0L0,8L-8,0L0,-8L8,0" class="white" style="fill: rgb(255, 255, 255); stroke: rgb(0, 0, 0); stroke-width: 2; stroke-dasharray: 100;"></path></marker><marker id="markerGENERATED-UNION-20-21-0" viewBox="-10 -10 20 20" markerWidth="20" markerHeight="20" markerUnits="userSpaceOnUse" orient="auto" refX="-8"><path d="M0,-8L8,0L0,8L-8,0L0,-8L8,0" class="white" style="fill: rgb(255, 255, 255); stroke: rgb(0, 0, 0); stroke-width: 2; stroke-dasharray: 100;"></path></marker><marker id="markerGENERATED-UNION-20-5-1" viewBox="-10 -10 20 20" markerWidth="20" markerHeight="20" markerUnits="userSpaceOnUse" orient="auto" refX="-8"><path d="M0,-8L8,0L0,8L-8,0L0,-8L8,0" class="white" style="fill: rgb(255, 255, 255); stroke: rgb(0, 0, 0); stroke-width: 2; stroke-dasharray: 100;"></path></marker></defs><g class="link" marker-end="url(#marker16)"><path class="link-path node7 node3 normal" d="M467.60272569043605,6.784474543687374Q357.69295184806265,37.186774339891436,330.2155083874693,44.78734928894245Q302.73806492687595,52.38792423799347,192.8282910845025,82.79022403419754" style="fill: none; stroke: rgb(0, 0, 0); stroke-width: 2;"></path></g><g class="link" marker-end="url(#marker17)"><path class="link-path node0 node2 normal" d="M432.04088875768196,261.1409898216093Q420.69550195635503,145.57002015044654,417.8591552560233,116.67727773265585Q415.0228085556916,87.78453531486515,403.6774217543646,-27.786434356297576" style="fill: none; stroke: rgb(0, 0, 0); stroke-width: 2;"></path></g><g class="link" marker-end="url(#marker18)" marker-start="url(#marker28)"><path class="link-path node0 node15 normal" d="M388.2454355968043,326.78657576140233Q286.42026794699706,357.8688313235437,260.9639760345452,365.63939521407906Q235.5076841220934,373.4099591046144,133.68251647228612,404.49221466675584" style="fill: none; stroke: rgb(0, 0, 0); stroke-width: 2;"></path></g><g class="link" marker-end="url(#marker22)"><path class="link-path node7 node13 normal" d="M552.9262656114889,-42.76733327818164Q601.0485750064521,-90.60469816577829,613.079152355193,-102.56403938767745Q625.1097297039338,-114.52338060957662,673.232039098897,-162.3607454971733" style="fill: none; stroke: rgb(0, 0, 0); stroke-width: 2;"></path></g><g class="link" marker-end="url(#marker23)"><path class="link-path node3 node0 normal" d="M184.77488479755414,126.58165150505026Q269.2340308206826,188.62986543170626,290.34881732646477,204.14191891337026Q311.4636038322469,219.65397239503426,395.92274985537546,281.7021863216903" style="fill: none; stroke: rgb(0, 0, 0); stroke-width: 2;"></path></g><g class="link" marker-end="url(#marker24)"><path class="link-path node0 node14 normal" d="M386.025901835747,311.40335136911693Q324.4441027287919,310.8072389118364,309.0486529520531,310.6582107975163Q293.6532031753143,310.5091826831962,232.07140406835916,309.9130702259156" style="fill: none; stroke: rgb(0, 0, 0); stroke-width: 2;"></path></g><g class="link" marker-end="url(#marker29)"><path class="link-path node5 node12 normal" d="M306.9540132694622,695.2892441947814Q252.45033390431738,722.488351643635,238.82441406303116,729.2881285058485Q225.19849422174494,736.0879053680619,170.69481485660003,763.2870128169155" style="fill: none; stroke: rgb(0, 0, 0); stroke-width: 2;"></path></g><g class="link" marker-start="url(#markerGENERATED-UNION-2-3-0)"><path class="link-path node2 node3 dashed" d="M356.6380852612471,-49.69400586327985Q288.2751850483929,-2.801050874065666,271.1844599951794,8.922187873237881Q254.09373494196586,20.64542662054143,185.73083472911168,67.53838160975562" style="fill: none; stroke: rgb(0, 0, 0); stroke-width: 2; stroke-dasharray: 8;"></path></g><g class="link" marker-start="url(#markerGENERATED-UNION-2-4-1)"><path class="link-path node2 node4 dashed" d="M402.795060116862,-129.37736109686705Q410.2517284330437,-221.8248750625056,412.11589551208914,-244.93675355391525Q413.9800625911346,-268.0486320453249,421.4367309073163,-360.49614601096346" style="fill: none; stroke: rgb(0, 0, 0); stroke-width: 2; stroke-dasharray: 8;"></path></g><g class="link" marker-start="url(#markerGENERATED-UNION-6-7-0)"><path class="link-path node6 node7 dashed" d="M734.5422422910368,220.8221726759786Q661.5306746530111,144.50878655580274,643.2777827435048,125.43044002575878Q625.0248908339984,106.35209349571481,552.0133231959726,30.03870737553892" style="fill: none; stroke: rgb(0, 0, 0); stroke-width: 2; stroke-dasharray: 8;"></path></g><g class="link" marker-start="url(#markerGENERATED-UNION-6-0-1)"><path class="link-path node6 node0 dashed" d="M719.4625311319116,265.87502525328017Q626.6213795723825,281.0030127708053,603.4110916825002,284.78500965018657Q580.200803792618,288.56700652956783,487.3596522330888,303.69499404709296" style="fill: none; stroke: rgb(0, 0, 0); stroke-width: 2; stroke-dasharray: 8;"></path></g><g class="link" marker-start="url(#markerGENERATED-UNION-8-0-0)"><path class="link-path node8 node0 dashed" d="M643.4700480210483,542.0544107438645Q574.5129555159624,465.1774351864633,557.2736823896909,445.958191297113Q540.0344092634193,426.7389474077627,471.0773167583334,349.8619718503615" style="fill: none; stroke: rgb(0, 0, 0); stroke-width: 2; stroke-dasharray: 8;"></path></g><g class="link" marker-start="url(#markerGENERATED-UNION-8-5-1)"><path class="link-path node8 node5 dashed" d="M628.4725298755569,593.9824601207216Q537.739025431711,619.810912707805,515.0556493207495,626.2680258545759Q492.372273209788,632.7251390013467,401.638768765942,658.55359158843" style="fill: none; stroke: rgb(0, 0, 0); stroke-width: 2; stroke-dasharray: 8;"></path></g><g class="link" marker-start="url(#markerGENERATED-UNION-10-7-0)"><path class="link-path node10 node7 dashed" d="M759.7226909229778,143.2122930202701Q679.8940148443661,93.92037089046599,659.9368458247131,81.59739035801496Q639.9796768050602,69.27440982556394,560.1510007264485,19.982487695759787" style="fill: none; stroke: rgb(0, 0, 0); stroke-width: 2; stroke-dasharray: 8;"></path></g><g class="link" marker-start="url(#markerGENERATED-UNION-10-0-1)"><path class="link-path node10 node0 dashed" d="M755.5635492512556,188.43755508325316Q647.1688336612181,230.44907900260483,620.0701547637086,240.95195998244276Q592.9714758661992,251.45484096228068,484.5767602761616,293.4663648816324" style="fill: none; stroke: rgb(0, 0, 0); stroke-width: 2; stroke-dasharray: 8;"></path></g><g class="link" marker-start="url(#markerGENERATED-UNION-20-21-0)"><path class="link-path node20 node21 dashed" d="M593.08786828272,940.8911954139901Q684.5374327901069,912.1529950639048,707.3998239169536,904.9684449763834Q730.2622150438002,897.7838948888619,821.7117795511871,869.0456945387765" style="fill: none; stroke: rgb(0, 0, 0); stroke-width: 2; stroke-dasharray: 8;"></path></g><g class="link" marker-start="url(#markerGENERATED-UNION-20-5-1)"><path class="link-path node20 node5 dashed" d="M515.8624568312681,913.9353461451151Q461.9809572683301,834.2660823810207,448.5105823775956,814.3487664399971Q435.0402074868611,794.4314504989735,381.1587079239231,714.762186734879" style="fill: none; stroke: rgb(0, 0, 0); stroke-width: 2; stroke-dasharray: 8;"></path></g><g class="link" marker-end="url(#marker26)" marker-start="url(#marker27)"><path class="link-path node5 node0 normal" d="M364.2142171614736,622.8596723113658Q388.68722704698854,518.337409126474,394.8054795183673,492.20684333025105Q400.92373198974605,466.0762775340281,425.396741875261,361.55401434913637" style="fill: none; stroke: rgb(0, 0, 0); stroke-width: 2;"></path></g><g class="link" marker-end="url(#marker9)" marker-start="url(#marker11)"><path class="link-path node1 node10 normal" d="M1069.117280719236,281.83685770403997Q981.5227510129318,245.0110165152375,959.6241185863557,235.80455621803685Q937.7254861597796,226.59809592083622,850.1309564534753,189.77225473203373" style="fill: none; stroke: rgb(0, 0, 0); stroke-width: 2;"></path></g><g class="link" marker-end="url(#marker19)" marker-start="url(#marker25)"><path class="link-path node21 node8 normal" d="M840.9941155614351,812.0631513434328Q787.354735800373,735.9227937814562,773.9448908601074,716.8877043909621Q760.5350459198419,697.852615000468,706.8956661587797,621.7122574384913" style="fill: none; stroke: rgb(0, 0, 0); stroke-width: 2;"></path></g></g><g class="cardinalityContainer"></g><g class="labelContainer"><g class="labelGroup" transform="translate(330.2155083874693,44.78734928894245)"><g class="label" id="16"><rect class="objectproperty property object" x="-24" y="-14" width="48" height="28" style="fill: rgb(170, 204, 255);"><title>owns</title></rect><text class="text" text-anchor="middle" style="fill: rgb(0, 0, 0); font-family: Helvetica, Arial, sans-serif; font-size: 12px; pointer-events: none;" y="-6.828125px"><tspan class="text" x="0" dy="12px" style="font-family: Helvetica, Arial, sans-serif; font-size: 12px; pointer-events: none;">owns</tspan></text></g></g><g class="labelGroup" transform="translate(417.8591552560233,116.67727773265585)"><g class="label" id="17"><rect class="objectproperty property object" x="-43" y="-14" width="86" height="28" style="fill: rgb(170, 204, 255);"><title>orchestrates</title></rect><text class="text" text-anchor="middle" style="fill: rgb(0, 0, 0); font-family: Helvetica, Arial, sans-serif; font-size: 12px; pointer-events: none;" y="-6.828125px"><tspan class="text" x="0" dy="12px" style="font-family: Helvetica, Arial, sans-serif; font-size: 12px; pointer-events: none;">orchestrates</tspan></text></g></g><g class="labelGroup" transform="translate(260.9639760345452,365.63939521407906)"><g class="label" id="18" transform="translate(0,-15)"><rect class="objectproperty property object" x="-42.5" y="-14" width="85" height="28" style="fill: rgb(170, 204, 255);"><title>Is guided by</title></rect><text class="text" text-anchor="middle" style="fill: rgb(0, 0, 0); font-family: Helvetica, Arial, sans-serif; font-size: 12px; pointer-events: none;" y="-6.828125px"><tspan class="text" x="0" dy="12px" style="font-family: Helvetica, Arial, sans-serif; font-size: 12px; pointer-events: none;">Is guided by</tspan></text></g><g class="label" id="28" transform="translate(0,15)"><rect class="objectproperty property object" x="-84.5" y="-14" width="169" height="28" style="fill: rgb(170, 204, 255);"><title>ensures correct operation of</title></rect><text class="text" text-anchor="middle" style="fill: rgb(0, 0, 0); font-family: Helvetica, Arial, sans-serif; font-size: 12px; pointer-events: none;" y="-6.828125px"><tspan class="text" x="0" dy="12px" style="font-family: Helvetica, Arial, sans-serif; font-size: 12px; pointer-events: none;">ensures correct operation of</tspan></text></g></g><g class="labelGroup" transform="translate(613.079152355193,-102.56403938767745)"><g class="label" id="22"><rect class="datatypeproperty property datatype" x="-39" y="-14" width="78" height="28" style="fill: rgb(153, 204, 102);"><title>Headcount</title></rect><text class="text" text-anchor="middle" style="fill: rgb(0, 0, 0); font-family: Helvetica, Arial, sans-serif; font-size: 12px; pointer-events: none;" y="-6.828125px"><tspan class="text" x="0" dy="12px" style="font-family: Helvetica, Arial, sans-serif; font-size: 12px; pointer-events: none;">Headcount</tspan></text></g></g><g class="labelGroup" transform="translate(290.34881732646477,204.14191891337026)"><g class="label" id="23"><rect class="objectproperty property object" x="-33" y="-14" width="66" height="28" style="fill: rgb(170, 204, 255);"><title>supports</title></rect><text class="text" text-anchor="middle" style="fill: rgb(0, 0, 0); font-family: Helvetica, Arial, sans-serif; font-size: 12px; pointer-events: none;" y="-6.828125px"><tspan class="text" x="0" dy="12px" style="font-family: Helvetica, Arial, sans-serif; font-size: 12px; pointer-events: none;">supports</tspan></text></g></g><g class="labelGroup" transform="translate(309.0486529520531,310.6582107975163)"><g class="label" id="24"><rect class="datatypeproperty property datatype" x="-55.5" y="-14" width="111" height="28" style="fill: rgb(153, 204, 102);"><title>process criticality</title></rect><text class="text" text-anchor="middle" style="fill: rgb(0, 0, 0); font-family: Helvetica, Arial, sans-serif; font-size: 12px; pointer-events: none;" y="-6.828125px"><tspan class="text" x="0" dy="12px" style="font-family: Helvetica, Arial, sans-serif; font-size: 12px; pointer-events: none;">process criticality</tspan></text></g></g><g class="labelGroup" transform="translate(238.82441406303116,729.2881285058485)"><g class="label" id="29"><rect class="datatypeproperty property datatype" x="-21.5" y="-14" width="43" height="28" style="fill: rgb(153, 204, 102);"><title>FTE</title></rect><text class="text" text-anchor="middle" style="fill: rgb(0, 0, 0); font-family: Helvetica, Arial, sans-serif; font-size: 12px; pointer-events: none;" y="-6.828125px"><tspan class="text" x="0" dy="12px" style="font-family: Helvetica, Arial, sans-serif; font-size: 12px; pointer-events: none;">FTE</tspan></text></g></g><g class="labelGroup" transform="translate(394.8054795183673,492.20684333025105)"><g class="label" id="26" transform="translate(0,-15)"><rect class="objectproperty property object" x="-47" y="-14" width="94" height="28" style="fill: rgb(170, 204, 255);"><title>participates in</title></rect><text class="text" text-anchor="middle" style="fill: rgb(0, 0, 0); font-family: Helvetica, Arial, sans-serif; font-size: 12px; pointer-events: none;" y="-6.828125px"><tspan class="text" x="0" dy="12px" style="font-family: Helvetica, Arial, sans-serif; font-size: 12px; pointer-events: none;">participates in</tspan></text></g><g class="label" id="27" transform="translate(0,15)"><rect class="objectproperty property object" x="-31.5" y="-14" width="63" height="28" style="fill: rgb(170, 204, 255);"><title>involves</title></rect><text class="text" text-anchor="middle" style="fill: rgb(0, 0, 0); font-family: Helvetica, Arial, sans-serif; font-size: 12px; pointer-events: none;" y="-6.828125px"><tspan class="text" x="0" dy="12px" style="font-family: Helvetica, Arial, sans-serif; font-size: 12px; pointer-events: none;">involves</tspan></text></g></g><g class="labelGroup" transform="translate(959.6241185863557,235.80455621803685)"><g class="label" id="9" transform="translate(0,-15)"><rect class="objectproperty property object" x="-49.5" y="-14" width="99" height="28" style="fill: rgb(170, 204, 255);"><title>Is produced by</title></rect><text class="text" text-anchor="middle" style="fill: rgb(0, 0, 0); font-family: Helvetica, Arial, sans-serif; font-size: 12px; pointer-events: none;" y="-6.828125px"><tspan class="text" x="0" dy="12px" style="font-family: Helvetica, Arial, sans-serif; font-size: 12px; pointer-events: none;">Is produced by</tspan></text></g><g class="label" id="11" transform="translate(0,15)"><rect class="objectproperty property object" x="-34.5" y="-14" width="69" height="28" style="fill: rgb(170, 204, 255);"><title>produces</title></rect><text class="text" text-anchor="middle" style="fill: rgb(0, 0, 0); font-family: Helvetica, Arial, sans-serif; font-size: 12px; pointer-events: none;" y="-6.828125px"><tspan class="text" x="0" dy="12px" style="font-family: Helvetica, Arial, sans-serif; font-size: 12px; pointer-events: none;">produces</tspan></text></g></g><g class="labelGroup" transform="translate(773.9448908601074,716.8877043909621)"><g class="label" id="19" transform="translate(0,-15)"><rect class="objectproperty property object" x="-46.5" y="-14" width="93" height="28" style="fill: rgb(170, 204, 255);"><title>is resolved by</title></rect><text class="text" text-anchor="middle" style="fill: rgb(0, 0, 0); font-family: Helvetica, Arial, sans-serif; font-size: 12px; pointer-events: none;" y="-6.828125px"><tspan class="text" x="0" dy="12px" style="font-family: Helvetica, Arial, sans-serif; font-size: 12px; pointer-events: none;">is resolved by</tspan></text></g><g class="label" id="25" transform="translate(0,15)"><rect class="objectproperty property object" x="-32.5" y="-14" width="65" height="28" style="fill: rgb(170, 204, 255);"><title>resolves</title></rect><text class="text" text-anchor="middle" style="fill: rgb(0, 0, 0); font-family: Helvetica, Arial, sans-serif; font-size: 12px; pointer-events: none;" y="-6.828125px"><tspan class="text" x="0" dy="12px" style="font-family: Helvetica, Arial, sans-serif; font-size: 12px; pointer-events: none;">resolves</tspan></text></g></g></g><g class="nodeContainer"><g class="node" id="0" transform="translate(437.0235125873087,311.89700877278824)"><circle class="class" r="50" style="fill: rgb(170, 204, 255); stroke: rgb(0, 0, 0); stroke-width: 2;"><title>Process</title></circle><text class="text" text-anchor="middle" style="fill: rgb(0, 0, 0); font-family: Helvetica, Arial, sans-serif; font-size: 12px; pointer-events: none;" y="-6.828125px"><tspan class="text" x="0" dy="12px" style="font-family: Helvetica, Arial, sans-serif; font-size: 12px; pointer-events: none;">Process</tspan></text></g><g class="node" id="2" transform="translate(398.6947979247379,-78.54245330747653)"><circle class="class" r="50" style="fill: rgb(170, 204, 255); stroke: rgb(0, 0, 0); stroke-width: 2;"></circle><g class="embedded" transform="translate(-5,-0.35)" style="pointer-events: none;"><circle class="symbol" r="10" style="fill: rgb(102, 153, 204);"></circle><circle cx="10" class="symbol fineline" r="10" style="stroke: rgb(0, 0, 0); fill: rgb(102, 153, 204); stroke-width: 1;"></circle><circle class="nofill fineline" r="10" style="fill: none; stroke: rgb(0, 0, 0); stroke-width: 1;"></circle><path class="link" d="m 1,-3 c 0,2 0,4 0,6 0,0 0,0 0,0 0,2 2,3 4,3 2,0 4,-1 4,-3 0,-2 0,-4 0,-6" transform="scale(.5)translate(5,0)" style="fill: none; stroke: rgb(0, 0, 0); stroke-width: 2;"></path></g><text class="text" text-anchor="middle" style="fill: rgb(0, 0, 0); font-family: Helvetica, Arial, sans-serif; font-size: 12px; pointer-events: none;"></text></g><g class="node" id="12" transform="translate(149.76126668335235,773.7335337248973)"><rect class="class datatype" x="-30" y="-10" width="60" height="20" style="fill: rgb(255, 204, 51); stroke: rgb(0, 0, 0); stroke-width: 2;"><title>integer</title></rect><text class="text" text-anchor="middle" style="fill: rgb(0, 0, 0); font-family: Helvetica, Arial, sans-serif; font-size: 12px; pointer-events: none;" y="-6.828125px"><tspan class="text" x="0" dy="12px" style="font-family: Helvetica, Arial, sans-serif; font-size: 12px; pointer-events: none;">integer</tspan></text></g><g class="node" id="13" transform="translate(684.0008077098452,-173.06574947368534)"><rect class="class datatype" x="-30" y="-10" width="60" height="20" style="fill: rgb(255, 204, 51); stroke: rgb(0, 0, 0); stroke-width: 2;"><title>integer</title></rect><text class="text" text-anchor="middle" style="fill: rgb(0, 0, 0); font-family: Helvetica, Arial, sans-serif; font-size: 12px; pointer-events: none;" y="-6.828125px"><tspan class="text" x="0" dy="12px" style="font-family: Helvetica, Arial, sans-serif; font-size: 12px; pointer-events: none;">integer</tspan></text></g><g class="node" id="14" transform="translate(201.07145091636775,309.61299035626257)"><rect class="class datatype" x="-30" y="-10" width="60" height="20" style="fill: rgb(255, 204, 51); stroke: rgb(0, 0, 0); stroke-width: 2;"><title>integer</title></rect><text class="text" text-anchor="middle" style="fill: rgb(0, 0, 0); font-family: Helvetica, Arial, sans-serif; font-size: 12px; pointer-events: none;" y="-6.828125px"><tspan class="text" x="0" dy="12px" style="font-family: Helvetica, Arial, sans-serif; font-size: 12px; pointer-events: none;">integer</tspan></text></g><g class="node" id="15" transform="translate(84.90443948178174,419.38178165536993)"><circle class="class" r="50" style="fill: rgb(170, 204, 255); stroke: rgb(0, 0, 0); stroke-width: 2;"><title>Control</title></circle><text class="text" text-anchor="middle" style="fill: rgb(0, 0, 0); font-family: Helvetica, Arial, sans-serif; font-size: 12px; pointer-events: none;" y="-6.828125px"><tspan class="text" x="0" dy="12px" style="font-family: Helvetica, Arial, sans-serif; font-size: 12px; pointer-events: none;">Control</tspan></text></g><g class="node" id="20" transform="translate(544.4337183057653,956.1808549922803)"><circle class="class" r="50" style="fill: rgb(170, 204, 255); stroke: rgb(0, 0, 0); stroke-width: 2;"></circle><g class="embedded" transform="translate(-5,-0.35)" style="pointer-events: none;"><circle class="symbol" r="10" style="fill: rgb(102, 153, 204);"></circle><circle cx="10" class="symbol fineline" r="10" style="stroke: rgb(0, 0, 0); fill: rgb(102, 153, 204); stroke-width: 1;"></circle><circle class="nofill fineline" r="10" style="fill: none; stroke: rgb(0, 0, 0); stroke-width: 1;"></circle><path class="link" d="m 1,-3 c 0,2 0,4 0,6 0,0 0,0 0,0 0,2 2,3 4,3 2,0 4,-1 4,-3 0,-2 0,-4 0,-6" transform="scale(.5)translate(5,0)" style="fill: none; stroke: rgb(0, 0, 0); stroke-width: 2;"></path></g><text class="text" text-anchor="middle" style="fill: rgb(0, 0, 0); font-family: Helvetica, Arial, sans-serif; font-size: 12px; pointer-events: none;"></text></g><g class="node" id="3" transform="translate(143.6741220656209,96.3868290539523)"><circle class="class" r="50" style="fill: rgb(170, 204, 255); stroke: rgb(0, 0, 0); stroke-width: 2;"><title>Function</title></circle><text class="text" text-anchor="middle" style="fill: rgb(0, 0, 0); font-family: Helvetica, Arial, sans-serif; font-size: 12px; pointer-events: none;" y="-6.828125px"><tspan class="text" x="0" dy="12px" style="font-family: Helvetica, Arial, sans-serif; font-size: 12px; pointer-events: none;">Function</tspan></text></g><g class="node" id="21" transform="translate(870.3659295281418,853.7560349604863)"><circle class="class" r="50" style="fill: rgb(170, 204, 255); stroke: rgb(0, 0, 0); stroke-width: 2;"><title>Event</title></circle><text class="text" text-anchor="middle" style="fill: rgb(0, 0, 0); font-family: Helvetica, Arial, sans-serif; font-size: 12px; pointer-events: none;" y="-6.828125px"><tspan class="text" x="0" dy="12px" style="font-family: Helvetica, Arial, sans-serif; font-size: 12px; pointer-events: none;">Event</tspan></text></g><g class="node" id="7" transform="translate(516.7568947093176,-6.812130476067389)"><circle class="class" r="50" style="fill: rgb(51, 102, 204); stroke: rgb(0, 0, 0); stroke-width: 2;"><title>Organization</title></circle><text class="text" text-anchor="middle" style="fill: rgb(255, 255, 255); font-family: Helvetica, Arial, sans-serif; font-size: 12px; pointer-events: none;" y="-11.2265625px"><tspan class="text" x="0" dy="12px" style="font-family: Helvetica, Arial, sans-serif; font-size: 12px; pointer-events: none;">Organization</tspan><tspan class="text subtext" x="0" dy="10px" style="font-family: Helvetica, Arial, sans-serif; font-size: 9px; pointer-events: none;">(external)</tspan></text></g><g class="node" id="4" transform="translate(425.5369930994404,-411.33105380035397)"><circle class="class" r="50" style="fill: rgb(170, 204, 255); stroke: rgb(0, 0, 0); stroke-width: 2;"><title>Business Service</title></circle><text class="text" text-anchor="middle" style="fill: rgb(0, 0, 0); font-family: Helvetica, Arial, sans-serif; font-size: 12px; pointer-events: none;" y="-6.828125px"><tspan class="text" x="0" dy="12px" style="font-family: Helvetica, Arial, sans-serif; font-size: 12px; pointer-events: none;">Business Service</tspan></text></g><g class="node" id="5" transform="translate(352.5874464494259,672.5166778877139)"><circle class="class" r="50" style="fill: rgb(51, 102, 204); stroke: rgb(0, 0, 0); stroke-width: 2;"><title>Agent</title></circle><text class="text" text-anchor="middle" style="fill: rgb(255, 255, 255); font-family: Helvetica, Arial, sans-serif; font-size: 12px; pointer-events: none;" y="-11.2265625px"><tspan class="text" x="0" dy="12px" style="font-family: Helvetica, Arial, sans-serif; font-size: 12px; pointer-events: none;">Agent</tspan><tspan class="text subtext" x="0" dy="10px" style="font-family: Helvetica, Arial, sans-serif; font-size: 9px; pointer-events: none;">(external)</tspan></text></g><g class="node" id="1" transform="translate(1116.131440232603,301.60220124397637)"><circle class="class" r="50" style="fill: rgb(170, 204, 255); stroke: rgb(0, 0, 0); stroke-width: 2;"><title>Product</title></circle><text class="text" text-anchor="middle" style="fill: rgb(0, 0, 0); font-family: Helvetica, Arial, sans-serif; font-size: 12px; pointer-events: none;" y="-6.828125px"><tspan class="text" x="0" dy="12px" style="font-family: Helvetica, Arial, sans-serif; font-size: 12px; pointer-events: none;">Product</tspan></text></g><g class="node" id="6" transform="translate(769.7986707776918,257.67301052758495)"><circle class="class" r="50" style="fill: rgb(170, 204, 255); stroke: rgb(0, 0, 0); stroke-width: 2;"></circle><g class="embedded" transform="translate(-5,-0.35)" style="pointer-events: none;"><circle class="symbol" r="10" style="fill: rgb(102, 153, 204);"></circle><circle cx="10" class="symbol fineline" r="10" style="stroke: rgb(0, 0, 0); fill: rgb(102, 153, 204); stroke-width: 1;"></circle><circle class="nofill fineline" r="10" style="fill: none; stroke: rgb(0, 0, 0); stroke-width: 1;"></circle><path class="link" d="m 1,-3 c 0,2 0,4 0,6 0,0 0,0 0,0 0,2 2,3 4,3 2,0 4,-1 4,-3 0,-2 0,-4 0,-6" transform="scale(.5)translate(5,0)" style="fill: none; stroke: rgb(0, 0, 0); stroke-width: 2;"></path></g><text class="text" text-anchor="middle" style="fill: rgb(0, 0, 0); font-family: Helvetica, Arial, sans-serif; font-size: 12px; pointer-events: none;"></text></g><g class="node" id="10" transform="translate(803.1167969401085,170.0069111920973)"><circle class="class" r="50" style="fill: rgb(170, 204, 255); stroke: rgb(0, 0, 0); stroke-width: 2;"></circle><g class="embedded" transform="translate(-5,-0.35)" style="pointer-events: none;"><circle class="symbol" r="10" style="fill: rgb(102, 153, 204);"></circle><circle cx="10" class="symbol fineline" r="10" style="stroke: rgb(0, 0, 0); fill: rgb(102, 153, 204); stroke-width: 1;"></circle><circle class="nofill fineline" r="10" style="fill: none; stroke: rgb(0, 0, 0); stroke-width: 1;"></circle><path class="link" d="m 1,-3 c 0,2 0,4 0,6 0,0 0,0 0,0 0,2 2,3 4,3 2,0 4,-1 4,-3 0,-2 0,-4 0,-6" transform="scale(.5)translate(5,0)" style="fill: none; stroke: rgb(0, 0, 0); stroke-width: 2;"></path></g><text class="text" text-anchor="middle" style="fill: rgb(0, 0, 0); font-family: Helvetica, Arial, sans-serif; font-size: 12px; pointer-events: none;"></text></g><g class="node" id="8" transform="translate(677.523852192073,580.0193738214377)"><circle class="class" r="50" style="fill: rgb(170, 204, 255); stroke: rgb(0, 0, 0); stroke-width: 2;"></circle><g class="embedded" transform="translate(-5,-0.35)" style="pointer-events: none;"><circle class="symbol" r="10" style="fill: rgb(102, 153, 204);"></circle><circle cx="10" class="symbol fineline" r="10" style="stroke: rgb(0, 0, 0); fill: rgb(102, 153, 204); stroke-width: 1;"></circle><circle class="nofill fineline" r="10" style="fill: none; stroke: rgb(0, 0, 0); stroke-width: 1;"></circle><path class="link" d="m 1,-3 c 0,2 0,4 0,6 0,0 0,0 0,0 0,2 2,3 4,3 2,0 4,-1 4,-3 0,-2 0,-4 0,-6" transform="scale(.5)translate(5,0)" style="fill: none; stroke: rgb(0, 0, 0); stroke-width: 2;"></path></g><text class="text" text-anchor="middle" style="fill: rgb(0, 0, 0); font-family: Helvetica, Arial, sans-serif; font-size: 12px; pointer-events: none;"></text></g></g></g></svg>